<svg width="151" height="25" viewBox="0 0 151 25" fill="none" xmlns="http://www.w3.org/2000/svg">
<path d="M0 1.33257H5.9636L12.2622 17.0046H12.5303L18.8289 1.33257H24.7925V24.6583H20.102V9.47608H19.9122L13.9932 24.5444H10.7993L4.88033 9.41913H4.69047V24.6583H0V1.33257Z" fill="#0084FF"/>
<path d="M35.9031 25C34.1684 25 32.6682 24.6241 31.4025 23.8724C30.1442 23.1131 29.1726 22.0577 28.4877 20.7062C27.8027 19.347 27.4602 17.7715 27.4602 15.9795C27.4602 14.1724 27.8027 12.593 28.4877 11.2415C29.1726 9.88231 30.1442 8.82688 31.4025 8.07517C32.6682 7.31587 34.1684 6.93622 35.9031 6.93622C37.6378 6.93622 39.1343 7.31587 40.3925 8.07517C41.6582 8.82688 42.6335 9.88231 43.3185 11.2415C44.0035 12.593 44.3459 14.1724 44.3459 15.9795C44.3459 17.7715 44.0035 19.347 43.3185 20.7062C42.6335 22.0577 41.6582 23.1131 40.3925 23.8724C39.1343 24.6241 37.6378 25 35.9031 25ZM35.9254 21.2415C36.7146 21.2415 37.3735 21.0137 37.9021 20.5581C38.4307 20.0949 38.8291 19.4647 39.0971 18.6674C39.3726 17.8702 39.5103 16.9628 39.5103 15.9453C39.5103 14.9279 39.3726 14.0205 39.0971 13.2232C38.8291 12.426 38.4307 11.7957 37.9021 11.3326C37.3735 10.8694 36.7146 10.6378 35.9254 10.6378C35.1288 10.6378 34.4587 10.8694 33.9152 11.3326C33.3792 11.7957 32.9734 12.426 32.6979 13.2232C32.4299 14.0205 32.2959 14.9279 32.2959 15.9453C32.2959 16.9628 32.4299 17.8702 32.6979 18.6674C32.9734 19.4647 33.3792 20.0949 33.9152 20.5581C34.4587 21.0137 35.1288 21.2415 35.9254 21.2415Z" fill="#0084FF"/>
<path d="M51.6623 14.5444V24.6583H46.9048V7.16401H51.4389V10.2506H51.6399C52.0196 9.23311 52.6562 8.42825 53.5496 7.83599C54.4431 7.23614 55.5263 6.93622 56.7995 6.93622C57.9907 6.93622 59.0293 7.20197 59.9153 7.73349C60.8013 8.265 61.4899 9.0243 61.9813 10.0114C62.4727 10.9909 62.7184 12.1602 62.7184 13.5194V24.6583H57.9609V14.385C57.9684 13.3144 57.7003 12.4791 57.1568 11.8793C56.6133 11.2718 55.8651 10.9681 54.9121 10.9681C54.2718 10.9681 53.706 11.1086 53.2146 11.3895C52.7307 11.6705 52.351 12.0805 52.0755 12.6196C51.8075 13.1511 51.6697 13.7927 51.6623 14.5444Z" fill="#0084FF"/>
<path d="M75.0574 7.16401V10.8087H64.7272V7.16401H75.0574ZM67.0725 2.97267H71.8299V19.2825C71.8299 19.7304 71.897 20.0797 72.031 20.3303C72.165 20.5733 72.3511 20.7441 72.5894 20.8428C72.8351 20.9415 73.118 20.9909 73.4381 20.9909C73.6615 20.9909 73.8848 20.9719 74.1082 20.9339C74.3315 20.8884 74.5028 20.8542 74.6219 20.8314L75.3701 24.4419C75.1319 24.5178 74.7969 24.6052 74.365 24.7039C73.9332 24.8102 73.4083 24.8747 72.7904 24.8975C71.6438 24.9431 70.6387 24.7874 69.7751 24.4305C68.9189 24.0737 68.2525 23.5194 67.776 22.7677C67.2996 22.0159 67.065 21.0668 67.0725 19.9203V2.97267Z" fill="#0084FF"/>
<path d="M85.2551 25C83.4905 25 81.9717 24.6355 80.6986 23.9066C79.4329 23.1701 78.4576 22.1298 77.7726 20.7859C77.0877 19.4343 76.7452 17.836 76.7452 15.9909C76.7452 14.1913 77.0877 12.612 77.7726 11.2528C78.4576 9.8937 79.4218 8.83447 80.6651 8.07517C81.9159 7.31587 83.3826 6.93622 85.0652 6.93622C86.1969 6.93622 87.2504 7.12225 88.2257 7.49431C89.2085 7.85877 90.0647 8.40926 90.7943 9.14579C91.5314 9.88231 92.1047 10.8087 92.5141 11.9248C92.9236 13.0334 93.1284 14.3318 93.1284 15.82V17.1526H78.6437V14.1458H88.6501C88.6501 13.4472 88.5012 12.8284 88.2034 12.2893C87.9055 11.7502 87.4923 11.3288 86.9637 11.0251C86.4426 10.7137 85.8358 10.5581 85.1434 10.5581C84.4212 10.5581 83.7809 10.7289 83.2225 11.0706C82.6716 11.4047 82.2398 11.8565 81.9271 12.426C81.6144 12.9879 81.4543 13.6143 81.4468 14.3052V17.164C81.4468 18.0296 81.6032 18.7775 81.9159 19.4077C82.236 20.038 82.6865 20.5239 83.2672 20.8656C83.8479 21.2073 84.5366 21.3781 85.3332 21.3781C85.8618 21.3781 86.3458 21.3022 86.785 21.1503C87.2243 20.9985 87.6003 20.7707 87.913 20.467C88.2257 20.1632 88.4639 19.7912 88.6277 19.3508L93.0278 19.6469C92.8045 20.7251 92.3466 21.6667 91.6542 22.4715C90.9693 23.2688 90.0833 23.8914 88.9963 24.3394C87.9167 24.7798 86.6696 25 85.2551 25Z" fill="#0084FF"/>
<path d="M108.195 8.041C108.106 7.12225 107.722 6.4085 107.045 5.89977C106.367 5.39104 105.448 5.13667 104.286 5.13667C103.497 5.13667 102.831 5.25057 102.287 5.47836C101.744 5.69856 101.327 6.00607 101.037 6.40091C100.754 6.79575 100.612 7.24374 100.612 7.74488C100.597 8.16249 100.683 8.52696 100.869 8.83827C101.063 9.14958 101.327 9.41914 101.662 9.64693C101.997 9.86712 102.384 10.0607 102.823 10.2278C103.263 10.3872 103.732 10.5239 104.231 10.6378L106.285 11.139C107.283 11.3667 108.199 11.6705 109.033 12.0501C109.867 12.4298 110.589 12.8967 111.199 13.451C111.81 14.0053 112.283 14.6583 112.618 15.41C112.96 16.1617 113.135 17.0235 113.142 17.9954C113.135 19.4229 112.778 20.6606 112.07 21.7084C111.371 22.7487 110.358 23.5573 109.033 24.1344C107.715 24.7039 106.125 24.9886 104.264 24.9886C102.418 24.9886 100.81 24.7001 99.4396 24.123C98.0771 23.5459 97.0125 22.6917 96.2456 21.5604C95.4862 20.4214 95.0879 19.0129 95.0506 17.3349H99.7299C99.7821 18.1169 100.002 18.7699 100.389 19.2938C100.783 19.8102 101.308 20.2012 101.964 20.467C102.626 20.7251 103.374 20.8542 104.208 20.8542C105.027 20.8542 105.738 20.7327 106.341 20.4897C106.952 20.2468 107.425 19.9089 107.76 19.4761C108.095 19.0433 108.262 18.5459 108.262 17.9841C108.262 17.4601 108.11 17.0197 107.804 16.6629C107.506 16.306 107.067 16.0023 106.486 15.7517C105.913 15.5011 105.21 15.2733 104.376 15.0683L101.885 14.4305C99.957 13.9522 98.4345 13.2043 97.3177 12.1868C96.2009 11.1693 95.6463 9.79879 95.6537 8.07517C95.6463 6.66287 96.0148 5.42901 96.7593 4.37358C97.5113 3.31815 98.5424 2.49431 99.8528 1.90205C101.163 1.3098 102.652 1.01367 104.32 1.01367C106.017 1.01367 107.499 1.3098 108.765 1.90205C110.038 2.49431 111.028 3.31815 111.735 4.37358C112.443 5.42901 112.807 6.65148 112.83 8.041H108.195Z" fill="black"/>
<path d="M115.771 24.6583V7.16401H120.529V24.6583H115.771ZM118.161 4.90888C117.454 4.90888 116.847 4.6697 116.341 4.19134C115.842 3.70539 115.592 3.12453 115.592 2.44875C115.592 1.78056 115.842 1.20729 116.341 0.728931C116.847 0.242977 117.454 0 118.161 0C118.868 0 119.471 0.242977 119.97 0.728931C120.476 1.20729 120.73 1.78056 120.73 2.44875C120.73 3.12453 120.476 3.70539 119.97 4.19134C119.471 4.6697 118.868 4.90888 118.161 4.90888Z" fill="black"/>
<path d="M132.929 7.16401V10.8087H122.599V7.16401H132.929ZM124.944 2.97267H129.702V19.2825C129.702 19.7304 129.769 20.0797 129.903 20.3303C130.037 20.5733 130.223 20.7441 130.461 20.8428C130.707 20.9415 130.99 20.9909 131.31 20.9909C131.533 20.9909 131.756 20.9719 131.98 20.9339C132.203 20.8884 132.374 20.8542 132.494 20.8314L133.242 24.4419C133.004 24.5178 132.668 24.6052 132.237 24.7039C131.805 24.8102 131.28 24.8747 130.662 24.8975C129.515 24.9431 128.51 24.7874 127.647 24.4305C126.791 24.0737 126.124 23.5194 125.648 22.7677C125.171 22.0159 124.937 21.0668 124.944 19.9203V2.97267Z" fill="black"/>
<path d="M143.127 25C141.362 25 139.843 24.6355 138.57 23.9066C137.305 23.1701 136.329 22.1298 135.644 20.7859C134.959 19.4343 134.617 17.836 134.617 15.9909C134.617 14.1913 134.959 12.612 135.644 11.2528C136.329 9.8937 137.293 8.83447 138.537 8.07517C139.788 7.31587 141.254 6.93622 142.937 6.93622C144.069 6.93622 145.122 7.12225 146.097 7.49431C147.08 7.85877 147.936 8.40926 148.666 9.14579C149.403 9.88231 149.976 10.8087 150.386 11.9248C150.795 13.0334 151 14.3318 151 15.82V17.1526H136.515V14.1458H146.522C146.522 13.4472 146.373 12.8284 146.075 12.2893C145.777 11.7502 145.364 11.3288 144.835 11.0251C144.314 10.7137 143.707 10.5581 143.015 10.5581C142.293 10.5581 141.653 10.7289 141.094 11.0706C140.543 11.4047 140.111 11.8565 139.799 12.426C139.486 12.9879 139.326 13.6143 139.318 14.3052V17.164C139.318 18.0296 139.475 18.7775 139.788 19.4077C140.108 20.038 140.558 20.5239 141.139 20.8656C141.72 21.2073 142.408 21.3781 143.205 21.3781C143.733 21.3781 144.217 21.3022 144.657 21.1503C145.096 20.9985 145.472 20.7707 145.785 20.467C146.097 20.1632 146.336 19.7912 146.499 19.3508L150.899 19.6469C150.676 20.7251 150.218 21.6667 149.526 22.4715C148.841 23.2688 147.955 23.8914 146.868 24.3394C145.788 24.7798 144.541 25 143.127 25Z" fill="black"/>
</svg>
